<svg data-v-29081953="" xmlns="http://www.w3.org/2000/svg" viewBox="0 0 300 300"><!----><defs data-v-29081953=""><linearGradient data-v-29081953="" gradientTransform="rotate(25)" id="d32574c9-e87f-4bea-bdb1-3c738cf5186e" x1="0%" y1="0%" x2="100%" y2="0%"><stop data-v-29081953="" offset="0%" stop-color="#0076DD" stop-opacity="1"></stop><stop data-v-29081953="" offset="100%" stop-color="#E600E9" stop-opacity="1"></stop></linearGradient></defs><rect data-v-29081953="" fill="url(#d32574c9-e87f-4bea-bdb1-3c738cf5186e)" x="0" y="0" width="300px" height="300px" class="logo-background-square"></rect><defs data-v-29081953=""><!----></defs><g data-v-29081953="" id="79f1d52b-11c0-454b-b1e8-5f2af20c517e" fill="#ffffff" transform="matrix(7.2444038487466935,0,0,7.2444038487466935,162.12809975451898,51.62099283232311)"><path d="M7.06 16.60L7.06 16.60Q7.45 17.30 7.83 17.71L7.83 17.71L7.83 17.71Q8.22 18.12 8.89 18.37L8.89 18.37L8.89 18.37Q8.65 18.76 8.31 18.97L8.31 18.97L8.31 18.97Q7.97 19.18 7.59 19.18L7.59 19.18L7.59 19.18Q7.04 19.18 6.66 18.85L6.66 18.85L6.66 18.85Q6.27 18.52 5.80 17.65L5.80 17.65L4.55 15.39L3.11 16.30L3.11 16.30Q3.04 17.21 3.04 17.93L3.04 17.93L3.04 17.93Q3.04 18.20 3.12 18.43L3.12 18.43L3.12 18.43Q3.19 18.66 3.32 18.79L3.32 18.79L3.32 18.79Q2.88 19.18 2.27 19.18L2.27 19.18L2.27 19.18Q1.40 19.18 1.40 18.07L1.40 18.07L1.40 18.07Q1.40 17.39 1.85 14.48L1.85 14.48L1.85 14.48Q2.31 11.56 2.73 9.28L2.73 9.28L2.11 8.58L2.11 8.58Q2.44 8.30 2.89 8.14L2.89 8.14L2.89 8.14Q3.35 7.98 3.72 7.98L3.72 7.98L3.72 7.98Q4.12 7.98 4.28 8.16L4.28 8.16L4.28 8.16Q4.45 8.33 4.45 8.75L4.45 8.75L4.45 8.75Q4.45 9.03 4.36 9.51L4.36 9.51L4.36 9.51Q4.27 10.00 4.06 10.89L4.06 10.89L4.06 10.89Q3.42 13.58 3.21 15.41L3.21 15.41L4.66 14.27L4.66 14.27Q5.67 13.43 6.25 12.68L6.25 12.68L6.25 12.68Q6.83 11.93 6.83 11.20L6.83 11.20L6.83 11.20Q6.83 10.99 6.76 10.74L6.76 10.74L6.76 10.74Q6.96 10.58 7.20 10.51L7.20 10.51L7.20 10.51Q7.45 10.43 7.69 10.43L7.69 10.43L7.69 10.43Q8.09 10.43 8.33 10.68L8.33 10.68L8.33 10.68Q8.57 10.93 8.57 11.37L8.57 11.37L8.57 11.37Q8.57 12.81 5.91 14.52L5.91 14.52L7.06 16.60ZM11.33 19.18L11.33 19.18Q10.46 19.18 10.46 18.07L10.46 18.07L10.46 18.07Q10.46 17.39 10.91 14.48L10.91 14.48L10.91 14.48Q11.37 11.56 11.79 9.28L11.79 9.28L11.17 8.58L11.17 8.58Q11.49 8.30 11.95 8.14L11.95 8.14L11.95 8.14Q12.40 7.98 12.78 7.98L12.78 7.98L12.78 7.98Q13.17 7.98 13.34 8.16L13.34 8.16L13.34 8.16Q13.51 8.33 13.51 8.75L13.51 8.75L13.51 8.75Q13.51 8.99 13.34 9.79L13.34 9.79L13.34 9.79Q13.17 10.60 13.13 10.84L13.13 10.84L13.13 10.84Q12.67 13.09 12.38 14.83L12.38 14.83L12.38 14.83Q12.10 16.58 12.10 17.93L12.10 17.93L12.10 17.93Q12.10 18.20 12.17 18.43L12.17 18.43L12.17 18.43Q12.25 18.66 12.38 18.79L12.38 18.79L12.38 18.79Q11.94 19.18 11.33 19.18L11.33 19.18Z"></path></g><defs data-v-29081953=""><!----></defs><g data-v-29081953="" id="d1338475-2d3e-4c7a-967c-ba4cac83e7ac" stroke="none" fill="#ffffff" transform="matrix(1.9016561398360425,0,0,1.9016561398360425,36.957353077959326,87.2453473854106)"><path d="M63.6 9.9l-1.5-.3c-.1-.6-.3-1.1-.6-1.6l.9-1.2c.3-.4.2-.9-.1-1.3L60 3.3c-.3-.3-.9-.4-1.3-.1l-1.2.8c-.5-.3-1-.5-1.5-.6l-.3-1.5c-.1-.5-.5-.8-1-.8h-3.2c-.4 0-.9.3-1 .8l-.3 1.5-1.5.6-1.2-.9c-.4-.3-.9-.2-1.3.1L44 5.4c-.3.3-.4.9-.1 1.3l.9 1.2c-.3.5-.5 1-.7 1.5l-1.5.3c-.5.1-.8.5-.8 1v3.2c0 .5.3.9.8 1l1.5.3.6 1.5-.9 1.2c-.3.4-.2.9.1 1.3l2.3 2.3c.3.3.9.4 1.3.1l1.2-.9c.5.3 1 .5 1.5.6l.3 1.5c.1.5.5.8.9.8h1.5c-.5.1-.8.5-.8.9 0 .5.4 1 1 1 .5 0 1-.4 1-1 0-.5-.3-.8-.8-.9h1.3c.5 0 .9-.3 1-.8l.3-1.5 1.5-.6 1.2.9c.4.3.9.2 1.3-.1l2.3-2.3c.3-.3.4-.9.1-1.3l-.9-1.2c.3-.5.5-1 .6-1.5l1.5-.2c.5-.1.8-.5.8-1v-3.2c.1-.5-.2-.9-.7-.9zM53.1 16c-2 0-3.7-1.7-3.7-3.7s1.7-3.7 3.7-3.7 3.7 1.7 3.7 3.7c0 2.1-1.7 3.7-3.7 3.7zM33.3 42.5c-2.9 0-5.4-1.9-7-4.5l-3.2 1.2c-.1 0-.1.1-.2.1-1.2.8-1.9 2.1-1.9 3.5v.9h24.6v-.9c0-1.4-.7-2.8-1.9-3.6-.1 0-.1-.1-.2-.1L40.3 38c-1.6 2.6-4.1 4.5-7 4.5z"></path><path d="M26.5 32c0 3.9 3.1 8.5 6.9 8.5 3.8 0 6.9-4.7 6.9-8.5s-3.1-6.9-6.9-6.9c-3.9 0-6.9 3.1-6.9 6.9zM53.1 55.8c-.5 0-1 .4-1 1 0 .5.4 1 1 1 .5 0 1-.4 1-1 0-.5-.5-1-1-1z"></path><circle cx="50.5" cy="57.1" r="1"></circle><path d="M53.1 52.9c-.5 0-1 .4-1 1 0 .5.4 1 1 1 .5 0 1-.4 1-1s-.5-1-1-1zM53.1 29.5c-.5 0-1 .4-1 1 0 .5.4 1 1 1 .5 0 1-.4 1-1s-.5-1-1-1zM53.1 41.2c-.5 0-1 .4-1 1 0 .5.4 1 1 1 .5 0 1-.4 1-1s-.5-1-1-1zM53.1 35.3c-.5 0-1 .4-1 1 0 .5.4 1 1 1 .5 0 1-.4 1-1 0-.5-.5-1-1-1zM53.1 50c-.5 0-1 .4-1 1 0 .5.4 1 1 1 .5 0 1-.4 1-1s-.5-1-1-1zM53.1 26.5c-.5 0-1 .4-1 1 0 .5.4 1 1 1 .5 0 1-.4 1-1 0-.5-.5-1-1-1zM53.1 32.4c-.5 0-1 .4-1 1 0 .5.4 1 1 1 .5 0 1-.4 1-1s-.5-1-1-1zM53.1 38.3c-.5 0-1 .4-1 1 0 .5.4 1 1 1 .5 0 1-.4 1-1s-.5-1-1-1zM53.1 44.1c-.5 0-1 .4-1 1 0 .5.4 1 1 1 .5 0 1-.4 1-1s-.5-1-1-1zM53.1 47.1c-.5 0-1 .4-1 1 0 .5.4 1 1 1 .5 0 1-.4 1-1s-.5-1-1-1zM13.5 52.9c-.5 0-1 .4-1 1 0 .5.4 1 1 1 .5 0 1-.4 1-1-.1-.6-.5-1-1-1zM13.5 47.1c-.5 0-1 .4-1 1 0 .5.4 1 1 1 .5 0 1-.4 1-1-.1-.6-.5-1-1-1zM13.5 50c-.5 0-1 .4-1 1 0 .5.4 1 1 1 .5 0 1-.4 1-1-.1-.6-.5-1-1-1zM13.5 55.8c-.5 0-1 .4-1 1 0 .5.4 1 1 1 .5 0 1-.4 1-1-.1-.5-.5-1-1-1zM13.5 23.6c-.5 0-1 .4-1 1 0 .5.4 1 1 1 .5 0 1-.4 1-1-.1-.6-.5-1-1-1zM16.1 58.1c.5 0 1-.4 1-1s-.4-1-1-1c-.5 0-1 .4-1 1s.5 1 1 1zM13.5 26.5c-.5 0-1 .4-1 1 0 .5.4 1 1 1 .5 0 1-.4 1-1-.1-.5-.5-1-1-1zM13.5 32.4c-.5 0-1 .4-1 1 0 .5.4 1 1 1 .5 0 1-.4 1-1-.1-.6-.5-1-1-1zM13.5 44.1c-.5 0-1 .4-1 1 0 .5.4 1 1 1 .5 0 1-.4 1-1-.1-.6-.5-1-1-1zM13.5 35.3c-.5 0-1 .4-1 1 0 .5.4 1 1 1 .5 0 1-.4 1-1-.1-.5-.5-1-1-1zM13.5 29.5c-.5 0-1 .4-1 1 0 .5.4 1 1 1 .5 0 1-.4 1-1-.1-.6-.5-1-1-1zM13.5 38.3c-.5 0-1 .4-1 1 0 .5.4 1 1 1 .5 0 1-.4 1-1-.1-.6-.5-1-1-1zM13.5 41.2c-.5 0-1 .4-1 1 0 .5.4 1 1 1 .5 0 1-.4 1-1-.1-.6-.5-1-1-1zM32.6 21.8V2c0-.5-.4-1-1-1h-29c-.5 0-1 .4-1 1v19.8c0 .5.4 1 1 1h29c.5 0 1-.5 1-1zm-19.3-6.2c.4.4.4 1 0 1.4-.4.4-1 .4-1.4 0l-4.7-4.4c-.2-.2-.3-.4-.3-.7 0-.3.1-.5.3-.7l4.7-4.4c.4-.4 1-.4 1.4 0 .4.4.4 1 0 1.4l-3.9 3.7 3.9 3.7zm6.6-10.4L16.2 19c-.1.5-.7.8-1.2.7-.5-.1-.8-.7-.7-1.2L18 4.7c.1-.5.7-.8 1.2-.7.5.2.8.7.7 1.2zm7 7.4L22.2 17c-.4.4-1 .4-1.4 0-.4-.4-.4-1 0-1.4l3.9-3.7-3.9-3.7c-.4-.4-.4-1 0-1.4.4-.4 1-.4 1.4 0l4.7 4.4c.4.4.4 1 0 1.4zM33.3 53.4c-.9 0-1.7.7-1.7 1.7 0 .9.7 1.7 1.7 1.7.9 0 1.7-.7 1.7-1.7 0-.9-.7-1.7-1.7-1.7z"></path><path d="M49.7 63h-1.8l1.8-16.3c0-.3-.1-.6-.2-.8-.2-.2-.4-.3-.7-.3H18c-.3 0-.5.1-.7.3-.2.2-.3.5-.2.8L18.8 63h-2.5c-.5 0-1 .4-1 1 0 .5.4 1 1 1h33.4c.5 0 1-.4 1-1 0-.5-.5-1-1-1zm-16.4-4.3c-2 0-3.6-1.6-3.6-3.6s1.6-3.6 3.6-3.6 3.6 1.6 3.6 3.6c.1 2-1.6 3.6-3.6 3.6z"></path></g><!----></svg>