<svg height="512pt" viewBox="0 0 512 512" width="512pt" xmlns="http://www.w3.org/2000/svg"><path d="m77.296875 348.40625-25.355469 36.253906-10.652344-21.304687h-24.773437l-16.515625-41.289063 66.066406 16.515625zm0 0" fill="#3b5566"/><path d="m507.816406 371.078125 4.183594 41.824219-24.773438-24.773438-57.808593-33.03125-12.316407 45.15625c-8.03125 29.457032-26.449218 55.007813-51.851562 71.945313l-18.09375 12.0625c-26.730469 17.820312-59.242188 24.796875-90.933594 19.515625-32.996094-5.5-64.984375-15.902344-94.902344-30.859375l-20.933593-10.464844-31.386719 37.660156c-6.273438 7.53125-15.570312 11.886719-25.375 11.886719h-42.335938c16.058594-10.703125 28.089844-26.457031 34.191407-44.761719l7.101562-21.304687-5.453125-10.816406 55.578125-38.480469 9.222657 3.953125c30.925781 13.25 65.636718 14.695312 97.554687 4.054687l-16.515625-24.773437-41.292969-16.515625-66.0625-33.03125-8.257812-24.777344h132.128906l41.289063-41.289063v-57.804687l-49.546876 16.515625h-198.195312l-16.515625-33.035156-9.710937-33.984375c-4.515626-15.800781-6.804688-32.15625-6.804688-48.59375l90.839844-16.515625c60.066406-10.921875 121.609375-10.921875 181.675781 0l7.796875-6.5c27.660156-23.050782 58.78125-41.601563 92.210938-54.976563l12.070312-4.828125c40.523438-16.207031 83.765625-24.535156 127.40625-24.535156l-53.695312 68.339844c-24.527344 31.21875-42.753907 66.90625-53.660157 105.078125l24.773438 66.066406c10.289062 0 19.859375 5.253906 25.382812 13.933594l26.949219 42.347656c14.460938 22.722656 23.386719 48.515625 26.066406 75.3125zm0 0" fill="#d2d7db"/><path d="m41.289062 247.742188 33.035157 33.03125 33.03125-33.03125 33.03125 33.03125 33.03125-33.03125 33.035156 33.03125 33.03125-33.03125 41.289063 16.515624v-57.804687l-49.546876 16.515625h-198.195312zm0 0" fill="#fcfcfc"/><path d="m107.355469 305.546875-16.515625-8.257813-16.515625-16.515624 33.03125-33.03125 33.03125 33.03125 33.03125-33.03125 33.035156 33.03125 33.03125-33.03125 41.289063 16.515624-41.289063 41.289063zm0 0" fill="#f4f1ed"/><path d="m429.417969 355.097656-24.773438-8.257812-8.257812-16.515625-14.386719 62.34375c-6.707031 29.066406-23.476562 54.828125-47.34375 72.726562-6.339844 4.753907-13.082031 8.882813-20.132812 12.34375-18.867188 9.265625-37.523438 18.636719-58.523438 17.746094h-33.03125l33.253906 8.296875c31.691406 5.28125 64.203125-1.699219 90.933594-19.519531l18.09375-12.0625c25.402344-16.933594 43.820312-42.488281 51.851562-71.941407zm0 0" fill="#536c87"/><path d="m16.515625 189.933594h206.453125l43.234375-18.527344c9.453125-4.050781 19.972656-4.894531 29.953125-2.398438 11.355469 2.839844 21.25 9.808594 27.742188 19.550782l22.941406 34.410156h49.546875l33.03125 16.515625-24.773438-66.066406c-21.410156-32.113281-52.910156-56.171875-89.527343-68.378907l-42.601563-14.199218c-60.066406-10.921875-121.609375-10.921875-181.675781 0l-90.839844 16.515625c0 16.433593 2.289062 32.789062 6.804688 48.59375zm0 0" fill="#536c87"/><path d="m272.515625 388.128906-6.664063 13.324219c-6.433593 12.871094-16.40625 23.640625-28.746093 31.042969-14.511719 8.707031-31.519531 12.296875-48.3125 10.199218l-14.234375-1.777343c-17.234375-2.15625-34.210938-6.007813-50.6875-11.5l-41.289063 82.582031h-41.292969c16.058594-10.703125 28.089844-26.457031 34.191407-44.761719l7.101562-21.304687-5.453125-10.816406 55.578125-38.480469 9.222657 3.953125c30.925781 13.25 65.636718 14.695312 97.554687 4.054687l-16.515625-24.773437zm0 0" fill="#3b5566"/><path d="m346.839844 222.96875h49.546875l33.03125 16.515625c10.289062 0 19.859375 5.253906 25.382812 13.933594l26.949219 42.347656c14.460938 22.722656 23.386719 48.515625 26.066406 75.316406l4.183594 41.820313-24.773438-24.773438c-5.394531-32.359375-19.917968-62.503906-41.863281-86.886718-25.917969-28.796876-62.84375-45.242188-101.589843-45.242188h-5.191407zm0 0" fill="#5d7993"/><path d="m322.066406 107.355469c16.324219-21.769531 37.132813-39.777344 61.019532-52.804688l39.738281-21.675781c9.882812-5.390625 20.222656-9.890625 30.902343-13.449219l58.273438-19.425781c-43.640625 0-86.882812 8.328125-127.402344 24.535156l-12.074218 4.828125c-33.429688 13.375-64.546876 31.925781-92.207032 54.976563l-7.800781 6.5zm0 0" fill="#536c87"/><path d="m165.160156 355.097656c-5.359375 16.082032-15.789062 29.992188-29.722656 39.644532l-2.730469 1.890624-55.578125 38.484376-27.582031 19.074218 13.542969-47.316406 2.976562-10.488281 26.175782-34.933594 23.371093-31.128906zm0 0" fill="#c3c7c9"/><path d="m115.613281 330.324219-23.371093 31.128906-19.640626 26.210937c-4.320312 5.765626-7.542968 12.277344-9.511718 19.210938l-13.542969 47.320312v-66.066406l2.398437-3.46875 25.351563-36.253906 30.058594-42.859375zm0 0" fill="#466077"/><g fill="#3b5566"><path d="m57.8125 165.160156c-3.03125 0-5.945312-1.667968-7.394531-4.5625l-8.257813-16.519531c-2.039062-4.078125-.386718-9.039063 3.695313-11.078125 4.089843-2.03125 9.039062-.378906 11.078125 3.691406l8.257812 16.519532c2.042969 4.078124.390625 9.039062-3.691406 11.078124-1.1875.589844-2.449219.871094-3.6875.871094zm0 0"/><path d="m99.105469 165.160156c-3.03125 0-5.949219-1.667968-7.394531-4.5625l-8.257813-16.519531c-2.042969-4.078125-.386719-9.039063 3.691406-11.078125 4.09375-2.03125 9.046875-.378906 11.082031 3.691406l8.257813 16.519532c2.039063 4.078124.386719 9.039062-3.695313 11.078124-1.183593.589844-2.445312.871094-3.683593.871094zm0 0"/><path d="m318.585938 164.867188c-.425782-3 .816406-6.121094 3.480468-7.960938l15.191406-10.496094c3.753907-2.59375 8.898438-1.65625 11.492188 2.097656 2.585938 3.769532 1.644531 8.902344-2.101562 11.492188l-15.191407 10.496094c-3.753906 2.59375-8.898437 1.652344-11.492187-2.101563-.75-1.089843-1.207032-2.300781-1.378906-3.527343zm0 0"/><path d="m343.359375 189.640625c-.425781-3 .816406-6.121094 3.480469-7.960937l15.195312-10.496094c3.75-2.59375 8.894532-1.652344 11.488282 2.101562 2.585937 3.765625 1.644531 8.898438-2.101563 11.488282l-15.191406 10.496093c-3.753907 2.59375-8.898438 1.652344-11.492188-2.101562-.746093-1.089844-1.203125-2.300781-1.378906-3.527344zm0 0"/><path d="m359.875 214.414062c-.425781-3 .816406-6.121093 3.480469-7.960937l15.195312-10.496094c3.753907-2.59375 8.894531-1.652343 11.488281 2.101563 2.585938 3.765625 1.644532 8.898437-2.101562 11.488281l-15.191406 10.496094c-3.753906 2.59375-8.898438 1.652343-11.492188-2.101563-.746094-1.089844-1.203125-2.300781-1.378906-3.527344zm0 0"/></g><path d="m222.96875 132.128906c0 13.707032-11.066406 24.773438-24.773438 24.773438-13.710937 0-24.777343-11.066406-24.777343-24.773438 0-1.320312.082031-2.558594.332031-3.796875 4.210938-1.902343 8.007812-4.542969 11.3125-7.847656l1.488281-1.484375c5.203125-5.203125 11.808594-8.835938 18.910157-10.488281 10.15625 3.054687 17.507812 12.46875 17.507812 23.617187zm0 0" fill="#fff"/><path d="m214.710938 140.386719c0 9.121093-7.394532 16.515625-16.515626 16.515625-9.125 0-16.519531-7.394532-16.519531-16.515625 0-9.121094 7.394531-16.515625 16.519531-16.515625 9.121094 0 16.515626 7.394531 16.515626 16.515625zm0 0" fill="#493c35"/><path d="m198.195312 132.128906c0 4.5625-3.699218 8.257813-8.261718 8.257813-4.558594 0-8.257813-3.695313-8.257813-8.257813s3.699219-8.257812 8.257813-8.257812c4.5625 0 8.261718 3.695312 8.261718 8.257812zm0 0" fill="#fff"/><path d="m206.453125 152.773438c0 2.28125-1.851563 4.128906-4.128906 4.128906-2.28125 0-4.128907-1.847656-4.128907-4.128906s1.847657-4.128907 4.128907-4.128907c2.277343 0 4.128906 1.847657 4.128906 4.128907zm0 0" fill="#fff"/><path d="m156.902344 140.386719c-4.558594 0-8.257813-3.695313-8.257813-8.257813s3.699219-8.257812 8.257813-8.257812c4.582031 0 9.179687-1.039063 13.300781-3 3.433594-1.546875 6.421875-3.628906 9.023437-6.226563l1.484376-1.484375c6.289062-6.289062 14.199218-10.675781 22.878906-12.691406 3.597656-.902344 7.378906-1.371094 11.121094-1.371094h16.515624c4.5625 0 8.257813 3.691406 8.257813 8.257813 0 4.5625-3.699219 8.257812-8.257813 8.257812h-16.515624c-2.394532 0-4.835938.304688-7.253907.910157-5.796875 1.347656-10.964843 4.21875-15.070312 8.316406l-1.484375 1.480468c-4.011719 4.019532-8.640625 7.226563-13.75 9.535157-6.175782 2.941406-13.230469 4.53125-20.25 4.53125zm0 0" fill="#3b5566"/><path d="m313.804688 198.195312c0 13.679688-11.089844 24.773438-24.773438 24.773438-13.679688 0-24.773438-11.09375-24.773438-24.773438 0-13.683593 11.09375-24.777343 24.773438-24.777343 13.683594 0 24.773438 11.09375 24.773438 24.777343zm0 0" fill="#fa4c52"/></svg>