<svg id="Layer_1" height="512" viewBox="0 0 128 128" width="512" xmlns="http://www.w3.org/2000/svg" xmlns:xlink="http://www.w3.org/1999/xlink" data-name="Layer 1"><linearGradient id="linear-gradient" gradientUnits="userSpaceOnUse" x1="114.772" x2="13.228" y1="111.645" y2="10.102"><stop offset="0" stop-color="#2de0c7"/><stop offset="1" stop-color="#fda736"/></linearGradient><path d="m43.129 96.743a1.75 1.75 0 0 1 0 3.5h-2.314a1.75 1.75 0 0 1 0-3.5zm-38.983 1.75v-78.583a1.75 1.75 0 0 1 1.754-1.75h116.2a1.75 1.75 0 0 1 1.75 1.75v78.583a1.75 1.75 0 0 1 -1.75 1.75h-3.546l.813 3.446a5 5 0 0 1 -9.482 3.076l-2.725-6.522h-58.522a1.75 1.75 0 0 1 0-3.5h71.717v-6.337h-112.709v6.337h27.924a1.75 1.75 0 0 1 0 3.5h-14.735l-2.725 6.523a5 5 0 0 1 -9.482-3.077l.813-3.446h-3.541a1.75 1.75 0 0 1 -1.754-1.75zm8.892 1.75-1 4.251a1.5 1.5 0 0 0 2.846.924l2.161-5.175zm101.926 0h-4l2.161 5.174a1.5 1.5 0 0 0 2.846-.923zm-79.407-47.59a1.75 1.75 0 0 1 1.061-1.608h-5.063v2.788a11.575 11.575 0 0 0 23.149 0v-3.573a7.136 7.136 0 0 1 -5.467-3.034 10.182 10.182 0 0 1 -7.946 3.819h-2.667a1.75 1.75 0 0 1 -.689 3.358h-.628a1.75 1.75 0 0 1 -1.75-1.75zm15.883-10.788v1.269a3.65 3.65 0 0 0 3.646 3.646h2.383v-3.726a3.568 3.568 0 0 0 -3.569-3.565h-2.408v1.354c0 .345-.018.686-.052 1.022zm9.11 40.828h-.494a2.043 2.043 0 1 0 0 4.087h.494a1.551 1.551 0 0 0 1.55-1.55v-.987a1.551 1.551 0 0 0 -1.549-1.55zm.161-3.484a12.6 12.6 0 0 0 -.928-2.867v2.865c.091 0 .181-.014.273-.014h.494c.056 0 .107.015.162.017zm-18.083-6.177h1l2.94-4.125h-6.88zm-14.573-21.926a.93.93 0 0 0 0 1.768zm30.145 1.768a.93.93 0 0 0 0-1.767zm-10.273 20.158h9.649a12.7 12.7 0 0 0 -6.883-3.88zm7.218-10.132a3.313 3.313 0 0 0 2.375-3.166v-1.411a15.024 15.024 0 0 1 -2.375 4.577zm-26.408-3.169a3.314 3.314 0 0 0 2.377 3.169 15.024 15.024 0 0 1 -2.376-4.577zm-.056 13.3h9.649l-2.766-3.88a12.7 12.7 0 0 0 -6.882 3.881zm-4.523 12.2a1.552 1.552 0 0 0 1.55 1.55h.492a2.043 2.043 0 1 0 0-4.087h-.493a1.552 1.552 0 0 0 -1.55 1.55zm2.316-6.023v-2.865a12.6 12.6 0 0 0 -.928 2.867c.055 0 .106-.016.162-.016h.492c.093-.001.183.006.275.013zm5.271 5.529a5.511 5.511 0 0 1 -.443 2.17h23.654a5.521 5.521 0 0 1 1.327-6.219v-4.156h-26.308v4.155a5.522 5.522 0 0 1 1.77 4.049zm88.609 2.17v-59.12h-112.708v59.119h13.32a4.989 4.989 0 0 1 -.308-1.676v-.987a5 5 0 0 1 1.18-3.205 16.232 16.232 0 0 1 10.25-14.487h-.031a6.828 6.828 0 0 1 -6.819-6.819v-4.583a4.43 4.43 0 0 1 0-6.318v-5.455a12.747 12.747 0 0 1 12.733-12.733 1.75 1.75 0 1 1 0 3.5 9.243 9.243 0 0 0 -9.233 9.233v4.169h12.553a6.707 6.707 0 0 0 6.649-5.905v-3.9a1.723 1.723 0 0 1 .02-.2 3.7 3.7 0 0 0 -3.678-3.4 1.75 1.75 0 0 1 0-3.5 7.216 7.216 0 0 1 6.957 5.347h2.661a7.072 7.072 0 0 1 7.064 7.064v5.476a1.725 1.725 0 0 1 -.024.239 4.418 4.418 0 0 1 .076 6.381v4.582a6.827 6.827 0 0 1 -6.816 6.822h-.03a16.232 16.232 0 0 1 10.249 14.487 5 5 0 0 1 1.18 3.206v.987a4.991 4.991 0 0 1 -.308 1.676zm-112.708-62.62h112.708v-2.627h-112.708zm63.062 71.038a1.75 1.75 0 0 0 0-3.5h-13.416a1.75 1.75 0 0 0 0 3.5zm-55.375-3.5a1.75 1.75 0 1 0 0 3.5h2.118a1.75 1.75 0 1 0 0-3.5zm27.8-29.386a7.047 7.047 0 0 0 6.022-2.956 1.75 1.75 0 0 0 -2.961-1.867 3.631 3.631 0 0 1 -3.062 1.323 3.631 3.631 0 0 1 -3.061-1.322 1.75 1.75 0 0 0 -2.961 1.865 7.04 7.04 0 0 0 6.019 2.957zm5.2-8.036h.627a1.75 1.75 0 1 0 0-3.5h-.627a1.75 1.75 0 0 0 0 3.5zm66.365-19.678h-9.052a1.75 1.75 0 1 0 0 3.5h7.3v15.219h-42.476v-15.218h21.23a1.75 1.75 0 0 0 0-3.5h-22.98a1.75 1.75 0 0 0 -1.75 1.75v18.718a1.75 1.75 0 0 0 1.75 1.75h45.97a1.75 1.75 0 0 0 1.75-1.75v-18.718a1.75 1.75 0 0 0 -1.751-1.75zm-16.606 3.5h1.948a1.75 1.75 0 0 0 0-3.5h-1.957a1.75 1.75 0 0 0 0 3.5zm-24.403 2.467v9.78h7.132v-2.177h-4.712v-7.6zm12.311 9.781v-9.78h-2.435v9.78zm2.461-9.78 3.872 9.78h2.733l3.873-9.78h-2.733l-2.506 6.334-2.506-6.335zm20.61 2.178v-2.179h-7.7v9.78h7.7v-2.177h-5.271v-1.723h4.783v-2.178h-4.783v-1.524z" fill="url(#linear-gradient)"/></svg>